<?xml version="1.0" standalone="no"?>
<!DOCTYPE svg PUBLIC "-//W3C//DTD SVG 20010904//EN"
 "http://www.w3.org/TR/2001/REC-SVG-20010904/DTD/svg10.dtd">
<svg version="1.0" xmlns="http://www.w3.org/2000/svg"
 width="379.000000pt" height="86.000000pt" viewBox="0 0 379.000000 86.000000"
 preserveAspectRatio="xMidYMid meet">

<g transform="translate(0.000000,86.000000) scale(0.100000,-0.100000)"
fill="#000000" stroke="none">
<path d="M30 794 c0 -56 2 -60 30 -73 87 -38 87 -171 0 -204 -32 -12 -40 -27
-15 -27 26 0 64 23 81 48 10 16 19 21 26 14 24 -24 -50 -92 -99 -92 -22 0 -23
-3 -23 -100 l0 -101 29 22 c17 12 47 25 68 28 37 6 38 7 34 49 -1 27 3 52 13
68 14 20 14 24 2 24 -8 0 -18 -4 -21 -10 -3 -5 -10 -10 -16 -10 -15 0 -10 26
11 53 17 22 20 40 20 132 l0 107 120 -4 c119 -3 120 -3 151 -35 l32 -31 27 20
c15 11 42 23 60 27 l31 6 -30 41 c-19 28 -50 52 -88 70 -57 28 -62 29 -250 33
l-193 3 0 -58z"/>
<path d="M2420 678 l-1 -153 -31 38 c-43 53 -80 69 -154 69 -74 -1 -125 -23
-176 -80 -100 -110 -97 -348 6 -460 50 -56 167 -87 239 -63 20 7 52 30 71 52
20 21 38 39 41 39 3 0 5 -20 5 -45 l0 -45 45 0 45 0 0 400 0 400 -45 0 -45 0
0 -152z m-104 -137 c71 -32 104 -100 104 -211 0 -143 -65 -230 -170 -230 -88
0 -149 57 -171 159 -42 196 88 350 237 282z"/>
<path d="M30 691 c0 -5 9 -13 20 -16 11 -4 27 -18 35 -33 19 -35 19 -19 0 17
-16 33 -55 55 -55 32z"/>
<path d="M530 655 c-30 -16 -46 -46 -54 -99 -6 -44 -45 -91 -82 -100 -21 -6
-24 -13 -24 -49 0 -23 -7 -51 -15 -61 -28 -37 -17 -52 15 -21 26 25 30 26 30
10 0 -10 -9 -28 -20 -40 l-20 -22 22 -41 c26 -48 38 -53 38 -16 0 16 13 39 35
61 28 28 33 38 25 53 -8 15 -4 22 25 40 19 12 41 30 49 41 12 18 10 23 -20 53
-29 29 -34 41 -34 81 0 38 5 52 29 76 16 16 39 29 50 29 12 0 21 5 21 10 0 14
-41 12 -70 -5z"/>
<path d="M919 630 c-62 -11 -123 -43 -153 -83 -14 -19 -26 -37 -26 -41 0 -4
16 -14 36 -22 36 -15 36 -15 79 25 65 60 159 68 213 18 25 -23 46 -86 36 -111
-7 -18 -53 -31 -141 -41 -147 -15 -229 -64 -240 -142 -12 -90 24 -159 102
-194 81 -37 205 -15 252 45 28 35 33 33 33 -14 l0 -40 40 0 40 0 0 230 c0 171
-3 239 -14 263 -34 83 -137 126 -257 107z m188 -366 c-5 -73 -23 -104 -78
-142 -29 -20 -44 -23 -101 -20 -54 3 -72 8 -93 28 -22 20 -25 32 -23 69 3 39
8 49 36 68 19 12 55 25 80 29 26 3 74 12 107 19 33 7 64 13 69 14 5 0 6 -29 3
-65z"/>
<path d="M1595 630 c-51 -8 -76 -22 -108 -60 -14 -16 -28 -30 -31 -30 -3 0 -6
20 -6 45 l0 45 -40 0 -40 0 0 -300 0 -300 39 0 39 0 4 207 c4 240 10 260 88
301 77 40 155 16 192 -59 15 -29 18 -64 18 -241 l0 -208 46 0 46 0 -4 228 c-3
219 -4 229 -28 277 -38 76 -117 111 -215 95z"/>
<path d="M3492 629 c-102 -19 -162 -80 -162 -165 0 -94 52 -139 196 -171 96
-21 138 -47 142 -90 7 -66 -43 -103 -138 -103 -62 0 -105 20 -125 61 -14 27
-20 30 -48 24 -47 -10 -52 -19 -30 -62 45 -87 173 -126 296 -89 93 28 139 82
139 162 0 92 -54 137 -205 175 -104 25 -140 51 -140 97 0 60 65 99 152 89 37
-4 52 -12 78 -42 28 -33 34 -36 67 -30 43 8 44 18 11 68 -44 64 -134 93 -233
76z"/>
<path d="M2692 403 c3 -206 5 -232 24 -274 37 -80 121 -118 219 -97 39 8 60
20 93 54 l42 44 0 -50 0 -50 45 0 45 0 0 300 0 300 -45 0 -45 0 0 -201 c0
-186 -2 -204 -21 -239 -58 -102 -205 -105 -250 -6 -16 36 -19 68 -19 244 l0
202 -46 0 -46 0 4 -227z"/>
<path d="M30 595 c0 -15 4 -24 10 -20 13 8 13 32 0 40 -6 4 -10 -5 -10 -20z"/>
<path d="M576 574 c-7 -19 12 -47 25 -38 5 3 9 16 9 30 0 27 -24 33 -34 8z"/>
<path d="M530 519 c0 -14 50 -62 57 -55 3 3 -8 19 -26 35 -17 16 -31 25 -31
20z"/>
<path d="M326 437 c3 -10 9 -15 12 -12 3 3 0 11 -7 18 -10 9 -11 8 -5 -6z"/>
<path d="M247 414 c-4 -4 -7 -18 -7 -31 0 -20 5 -24 23 -21 16 2 22 10 22 28
0 24 -23 39 -38 24z"/>
<path d="M190 351 c0 -6 4 -13 10 -16 6 -3 7 1 4 9 -7 18 -14 21 -14 7z"/>
<path d="M95 268 c-11 -6 -30 -22 -43 -35 -20 -22 -22 -34 -22 -124 l0 -99 70
0 c54 0 70 3 70 14 0 8 -13 17 -30 21 -78 17 -108 128 -51 186 17 17 40 29 55
29 14 0 26 5 26 10 0 13 -50 12 -75 -2z"/>
<path d="M475 255 c-37 -36 -34 -94 5 -138 35 -40 38 -51 10 -44 -24 6 -24 4
-5 -33 15 -29 18 -30 90 -30 41 0 75 2 75 5 0 3 -9 23 -20 44 -17 35 -24 39
-67 44 -83 9 -121 88 -72 151 26 33 16 34 -16 1z"/>
<path d="M526 222 c-9 -15 4 -42 20 -42 12 0 13 4 3 23 -16 29 -16 30 -23 19z"/>
<path d="M141 196 c-14 -16 -4 -46 15 -46 8 0 14 10 14 24 0 30 -14 41 -29 22z"/>
<path d="M90 133 c0 -6 8 -20 18 -31 20 -23 62 -39 62 -23 0 6 -11 13 -25 17
-14 3 -32 16 -40 27 -8 12 -15 16 -15 10z"/>
</g>
</svg>
